<svg width="33" height="43" viewBox="0 0 33 43" fill="none" xmlns="http://www.w3.org/2000/svg">
<g filter="url(#filter0_d_982_8)">
<path d="M16.5 16.625C15.316 16.625 14.1805 16.1641 13.3433 15.3436C12.5061 14.5231 12.0357 13.4103 12.0357 12.25C12.0357 11.0897 12.5061 9.97688 13.3433 9.15641C14.1805 8.33594 15.316 7.875 16.5 7.875C17.684 7.875 18.8195 8.33594 19.6567 9.15641C20.4939 9.97688 20.9643 11.0897 20.9643 12.25C20.9643 12.8245 20.8488 13.3934 20.6245 13.9242C20.4001 14.455 20.0713 14.9373 19.6567 15.3436C19.2422 15.7498 18.75 16.0721 18.2084 16.292C17.6668 16.5118 17.0863 16.625 16.5 16.625ZM16.5 0C13.1848 0 10.0054 1.29062 7.66117 3.58794C5.31696 5.88526 4 9.0011 4 12.25C4 21.4375 16.5 35 16.5 35C16.5 35 29 21.4375 29 12.25C29 9.0011 27.683 5.88526 25.3388 3.58794C22.9946 1.29062 19.8152 0 16.5 0Z" fill="#FF6B00"/>
</g>
<defs>
<filter id="filter0_d_982_8" x="0" y="0" width="33" height="43" filterUnits="userSpaceOnUse" color-interpolation-filters="sRGB">
<feFlood flood-opacity="0" result="BackgroundImageFix"/>
<feColorMatrix in="SourceAlpha" type="matrix" values="0 0 0 0 0 0 0 0 0 0 0 0 0 0 0 0 0 0 127 0" result="hardAlpha"/>
<feOffset dy="4"/>
<feGaussianBlur stdDeviation="2"/>
<feComposite in2="hardAlpha" operator="out"/>
<feColorMatrix type="matrix" values="0 0 0 0 0 0 0 0 0 0 0 0 0 0 0 0 0 0 0.25 0"/>
<feBlend mode="normal" in2="BackgroundImageFix" result="effect1_dropShadow_982_8"/>
<feBlend mode="normal" in="SourceGraphic" in2="effect1_dropShadow_982_8" result="shape"/>
</filter>
</defs>
</svg>
